%TF.GenerationSoftware,KiCad,Pcbnew,7.0.8*%
%TF.CreationDate,2023-11-02T22:58:48+02:00*%
%TF.ProjectId,current_sensor,63757272-656e-4745-9f73-656e736f722e,rev?*%
%TF.SameCoordinates,Original*%
%TF.FileFunction,Copper,L1,Top*%
%TF.FilePolarity,Positive*%
%FSLAX46Y46*%
G04 Gerber Fmt 4.6, Leading zero omitted, Abs format (unit mm)*
G04 Created by KiCad (PCBNEW 7.0.8) date 2023-11-02 22:58:48*
%MOMM*%
%LPD*%
G01*
G04 APERTURE LIST*
%TA.AperFunction,ComponentPad*%
%ADD10C,3.000000*%
%TD*%
%TA.AperFunction,ComponentPad*%
%ADD11O,3.000000X3.000000*%
%TD*%
%TA.AperFunction,ComponentPad*%
%ADD12R,2.400000X1.600000*%
%TD*%
%TA.AperFunction,ComponentPad*%
%ADD13O,2.400000X1.600000*%
%TD*%
%TA.AperFunction,ComponentPad*%
%ADD14C,1.600000*%
%TD*%
%TA.AperFunction,ComponentPad*%
%ADD15O,1.600000X1.600000*%
%TD*%
%TA.AperFunction,ComponentPad*%
%ADD16R,1.700000X1.700000*%
%TD*%
%TA.AperFunction,ComponentPad*%
%ADD17O,1.700000X1.700000*%
%TD*%
%TA.AperFunction,ComponentPad*%
%ADD18R,1.500000X1.050000*%
%TD*%
%TA.AperFunction,ComponentPad*%
%ADD19O,1.500000X1.050000*%
%TD*%
%TA.AperFunction,ComponentPad*%
%ADD20R,3.000000X3.000000*%
%TD*%
%TA.AperFunction,Conductor*%
%ADD21C,0.800000*%
%TD*%
%TA.AperFunction,Conductor*%
%ADD22C,2.800000*%
%TD*%
%TA.AperFunction,Profile*%
%ADD23C,0.100000*%
%TD*%
G04 APERTURE END LIST*
D10*
X81788000Y-75857000D03*
D11*
X81788000Y-81407000D03*
X81788000Y-95707000D03*
X81788000Y-101257000D03*
D12*
X115627000Y-90307000D03*
D13*
X115627000Y-92847000D03*
X115627000Y-95387000D03*
X115627000Y-97927000D03*
X123247000Y-97927000D03*
X123247000Y-95387000D03*
X123247000Y-92847000D03*
X123247000Y-90307000D03*
D14*
X111125000Y-90678000D03*
D15*
X103505000Y-90678000D03*
D14*
X96042000Y-81788000D03*
D15*
X88422000Y-81788000D03*
D14*
X123277000Y-87122000D03*
D15*
X115657000Y-87122000D03*
D14*
X96012000Y-84836000D03*
D15*
X88392000Y-84836000D03*
D16*
X141224000Y-102997000D03*
D12*
X88489000Y-90688000D03*
D13*
X88489000Y-93228000D03*
X88489000Y-95768000D03*
X88489000Y-98308000D03*
X96109000Y-98308000D03*
X96109000Y-95768000D03*
X96109000Y-93228000D03*
X96109000Y-90688000D03*
X145298000Y-88910000D03*
X145298000Y-91450000D03*
X145298000Y-93990000D03*
X145298000Y-96530000D03*
X137678000Y-96530000D03*
X137678000Y-93990000D03*
X137678000Y-91450000D03*
D12*
X137678000Y-88910000D03*
D14*
X126738000Y-95377000D03*
D15*
X134358000Y-95377000D03*
D16*
X104267000Y-93980000D03*
D17*
X104267000Y-96520000D03*
X104267000Y-99060000D03*
D16*
X100584000Y-88265000D03*
D17*
X100584000Y-90805000D03*
X100584000Y-93345000D03*
D10*
X70738000Y-75857000D03*
D11*
X70738000Y-81407000D03*
X70738000Y-95707000D03*
X70738000Y-101257000D03*
D14*
X116967000Y-101092000D03*
X121967000Y-101092000D03*
X138851000Y-99695000D03*
X143851000Y-99695000D03*
D18*
X108818000Y-97282000D03*
D19*
X108818000Y-96012000D03*
X108818000Y-94742000D03*
D14*
X88392000Y-78740000D03*
D15*
X96012000Y-78740000D03*
D14*
X88422000Y-75692000D03*
D15*
X96042000Y-75692000D03*
D18*
X130527000Y-101092000D03*
D19*
X130527000Y-99822000D03*
X130527000Y-98552000D03*
D20*
X61722000Y-76835000D03*
D10*
X61722000Y-81915000D03*
X61722000Y-86995000D03*
D14*
X126590000Y-86741000D03*
D15*
X134210000Y-86741000D03*
D18*
X129913000Y-89789000D03*
D19*
X129913000Y-91059000D03*
X129913000Y-92329000D03*
D14*
X103505000Y-102362000D03*
D15*
X111125000Y-102362000D03*
D14*
X94662000Y-101473000D03*
X89662000Y-101473000D03*
D16*
X100584000Y-97028000D03*
D17*
X100584000Y-99568000D03*
X100584000Y-102108000D03*
D14*
X103505000Y-87630000D03*
D15*
X111125000Y-87630000D03*
D21*
X127127000Y-104492000D02*
X134054000Y-104492000D01*
X134054000Y-104492000D02*
X138851000Y-99695000D01*
X112649000Y-103762000D02*
X113379000Y-104492000D01*
X113379000Y-104492000D02*
X127127000Y-104492000D01*
X127127000Y-104492000D02*
X130527000Y-101092000D01*
X112649000Y-103762000D02*
X115319000Y-101092000D01*
X115319000Y-101092000D02*
X116967000Y-101092000D01*
X105510786Y-92078000D02*
X102359000Y-92078000D01*
X102359000Y-92078000D02*
X102105000Y-91824000D01*
X102105000Y-89030000D02*
X102105000Y-91824000D01*
X102105000Y-91824000D02*
X100584000Y-93345000D01*
X129913000Y-89789000D02*
X129913000Y-86749000D01*
X128749000Y-86741000D02*
X129921000Y-86741000D01*
X129921000Y-86741000D02*
X134210000Y-86741000D01*
X129913000Y-86749000D02*
X129921000Y-86741000D01*
X127349000Y-85341000D02*
X128749000Y-86741000D01*
X125058000Y-85341000D02*
X127349000Y-85341000D01*
X104905000Y-103762000D02*
X112649000Y-103762000D01*
X112649000Y-98989472D02*
X112649000Y-103762000D01*
X142875000Y-90170000D02*
X144038000Y-90170000D01*
X144038000Y-90170000D02*
X145298000Y-88910000D01*
X129913000Y-92329000D02*
X130873472Y-92329000D01*
X130873472Y-92329000D02*
X136334472Y-86868000D01*
X136334472Y-86868000D02*
X139573000Y-86868000D01*
X139573000Y-86868000D02*
X142875000Y-90170000D01*
X142875000Y-90170000D02*
X142875000Y-98719000D01*
X142875000Y-98719000D02*
X143851000Y-99695000D01*
X137678000Y-91450000D02*
X139329000Y-91450000D01*
X139329000Y-91450000D02*
X141224000Y-93345000D01*
X137678000Y-88910000D02*
X137678000Y-91450000D01*
X141224000Y-93345000D02*
X141224000Y-102997000D01*
X123277000Y-90277000D02*
X123247000Y-90307000D01*
X104032208Y-84230000D02*
X119101264Y-84230000D01*
X93091000Y-99902000D02*
X93091000Y-93706000D01*
D22*
X69760000Y-76835000D02*
X70738000Y-75857000D01*
D21*
X121993264Y-87122000D02*
X123277000Y-87122000D01*
X123277000Y-87122000D02*
X125058000Y-85341000D01*
X103054997Y-85207211D02*
X105029000Y-87181214D01*
X96109000Y-89540214D02*
X100442003Y-85207211D01*
X100442002Y-77877788D02*
X96732214Y-74168000D01*
X100442003Y-85207211D02*
X103054997Y-85207211D01*
X96732214Y-74168000D02*
X83477000Y-74168000D01*
X123277000Y-87122000D02*
X123277000Y-90277000D01*
X83477000Y-74168000D02*
X81788000Y-75857000D01*
X105029000Y-89154000D02*
X103505000Y-90678000D01*
X123247000Y-90307000D02*
X121447000Y-92107000D01*
X121447000Y-92107000D02*
X121447000Y-100572000D01*
X94662000Y-101473000D02*
X93091000Y-99902000D01*
X84671000Y-78740000D02*
X81788000Y-75857000D01*
X96109000Y-90688000D02*
X96109000Y-89540214D01*
X103054997Y-85207211D02*
X104032208Y-84230000D01*
D22*
X70738000Y-75857000D02*
X81788000Y-75857000D01*
D21*
X88392000Y-78740000D02*
X84671000Y-78740000D01*
X105029000Y-87181214D02*
X105029000Y-89154000D01*
X93091000Y-93706000D02*
X96109000Y-90688000D01*
X121447000Y-100572000D02*
X121967000Y-101092000D01*
D22*
X61722000Y-76835000D02*
X69760000Y-76835000D01*
D21*
X100442003Y-85207211D02*
X100442002Y-77877788D01*
X119101264Y-84230000D02*
X121993264Y-87122000D01*
X88489000Y-98308000D02*
X86013893Y-95832893D01*
X137678000Y-98522000D02*
X138851000Y-99695000D01*
X115627000Y-97927000D02*
X115627000Y-99752000D01*
X103505000Y-102362000D02*
X104905000Y-103762000D01*
X88489000Y-98308000D02*
X88489000Y-100300000D01*
X92062000Y-103873000D02*
X89662000Y-101473000D01*
X100584000Y-102108000D02*
X103251000Y-102108000D01*
X112649000Y-98989472D02*
X109671528Y-96012000D01*
X69823877Y-103351877D02*
X61722000Y-95250000D01*
X103251000Y-102108000D02*
X103505000Y-102362000D01*
X88489000Y-100300000D02*
X89662000Y-101473000D01*
X98819000Y-103873000D02*
X100584000Y-102108000D01*
X137678000Y-96530000D02*
X137678000Y-98522000D01*
X84689000Y-88539000D02*
X88392000Y-84836000D01*
X61722000Y-95250000D02*
X61722000Y-86995000D01*
X89662000Y-101473000D02*
X87783123Y-103351877D01*
X115627000Y-99752000D02*
X116967000Y-101092000D01*
X109671528Y-96012000D02*
X108818000Y-96012000D01*
X86013893Y-95832893D02*
X86013893Y-94707107D01*
X84689000Y-93382214D02*
X84689000Y-88539000D01*
X87783123Y-103351877D02*
X69823877Y-103351877D01*
X86013893Y-94707107D02*
X84689000Y-93382214D01*
X92062000Y-103873000D02*
X98819000Y-103873000D01*
X88422000Y-81788000D02*
X83566000Y-86644000D01*
D22*
X61722000Y-81915000D02*
X63373000Y-81915000D01*
X70738000Y-101257000D02*
X81788000Y-101257000D01*
X66675000Y-85217000D02*
X66675000Y-97194000D01*
D21*
X83947000Y-99098000D02*
X81788000Y-101257000D01*
D22*
X66675000Y-97194000D02*
X70738000Y-101257000D01*
X63373000Y-81915000D02*
X66675000Y-85217000D01*
D21*
X83566000Y-93673428D02*
X83947000Y-94054428D01*
X83947000Y-94054428D02*
X83947000Y-99098000D01*
X83566000Y-86644000D02*
X83566000Y-93673428D01*
X119034000Y-101546000D02*
X120980000Y-103492000D01*
X117371736Y-90307000D02*
X119034000Y-91969264D01*
X127225000Y-99822000D02*
X130527000Y-99822000D01*
X115627000Y-90307000D02*
X115627000Y-87152000D01*
X120980000Y-103492000D02*
X123555000Y-103492000D01*
X123555000Y-103492000D02*
X127225000Y-99822000D01*
X119034000Y-91969264D02*
X119034000Y-101546000D01*
X115627000Y-87152000D02*
X115657000Y-87122000D01*
X115627000Y-90307000D02*
X117371736Y-90307000D01*
X129913000Y-98552000D02*
X126738000Y-95377000D01*
X130527000Y-98552000D02*
X129913000Y-98552000D01*
X131148902Y-95377000D02*
X134358000Y-95377000D01*
X129059472Y-91059000D02*
X129913000Y-91059000D01*
X126590000Y-88589528D02*
X129059472Y-91059000D01*
X126590000Y-86741000D02*
X126590000Y-88589528D01*
X126590000Y-90818098D02*
X131148902Y-95377000D01*
X126590000Y-88589528D02*
X126590000Y-90818098D01*
X108818000Y-100055000D02*
X111125000Y-102362000D01*
X104267000Y-99060000D02*
X107040000Y-99060000D01*
X107040000Y-99060000D02*
X108818000Y-97282000D01*
X108818000Y-97282000D02*
X108818000Y-100055000D01*
X115627000Y-92847000D02*
X115318472Y-92847000D01*
X115318472Y-92847000D02*
X113827000Y-91355528D01*
X105156000Y-96520000D02*
X104267000Y-96520000D01*
X106934000Y-94742000D02*
X105156000Y-96520000D01*
X111697786Y-86230000D02*
X110552214Y-86230000D01*
X111125000Y-90678000D02*
X111125000Y-92435000D01*
X109725000Y-87057214D02*
X109725000Y-89278000D01*
X110552214Y-86230000D02*
X109725000Y-87057214D01*
X113827000Y-88359214D02*
X111697786Y-86230000D01*
X113827000Y-91355528D02*
X113827000Y-88359214D01*
X109725000Y-89278000D02*
X111125000Y-90678000D01*
X108818000Y-94742000D02*
X106934000Y-94742000D01*
X111125000Y-92435000D02*
X108818000Y-94742000D01*
X85689000Y-89225258D02*
X87649259Y-87264999D01*
X88489000Y-95768000D02*
X85689000Y-92968000D01*
X96012000Y-84836000D02*
X97442000Y-83406000D01*
X97442000Y-80170000D02*
X96012000Y-78740000D01*
X91492472Y-84836000D02*
X96012000Y-84836000D01*
X87649259Y-87264999D02*
X89063473Y-87264999D01*
X97442000Y-83406000D02*
X97442000Y-80170000D01*
X89063473Y-87264999D02*
X91492472Y-84836000D01*
X85689000Y-92968000D02*
X85689000Y-89225258D01*
X88063472Y-88265000D02*
X91440000Y-88265000D01*
X91440000Y-88265000D02*
X93091000Y-86614000D01*
X89946000Y-75692000D02*
X88422000Y-75692000D01*
X93741000Y-79487000D02*
X89946000Y-75692000D01*
X93091000Y-86614000D02*
X96206786Y-86614000D01*
X98442000Y-79197214D02*
X98442001Y-84378785D01*
X88180472Y-93228000D02*
X88489000Y-93228000D01*
X98442001Y-84378785D02*
X96206786Y-86614000D01*
X93741000Y-79487000D02*
X93741000Y-79038214D01*
X96042000Y-81788000D02*
X93741000Y-79487000D01*
X86689000Y-89639472D02*
X88063472Y-88265000D01*
X95439214Y-77340000D02*
X96584786Y-77340000D01*
X96584786Y-77340000D02*
X98442000Y-79197214D01*
X86689000Y-91736528D02*
X88180472Y-93228000D01*
X93741000Y-79038214D02*
X95439214Y-77340000D01*
X86689000Y-89639472D02*
X86689000Y-91736528D01*
X92192000Y-90688000D02*
X91821000Y-90688000D01*
X94361000Y-88519000D02*
X92192000Y-90688000D01*
X91821000Y-90688000D02*
X88489000Y-90688000D01*
X99442001Y-78292001D02*
X99442002Y-84792998D01*
X98044000Y-93345000D02*
X100584000Y-90805000D01*
X95374000Y-102873000D02*
X98044000Y-100203000D01*
X96842000Y-75692000D02*
X99442001Y-78292001D01*
X91821000Y-100604786D02*
X94089214Y-102873000D01*
X99442002Y-84792998D02*
X95716000Y-88519000D01*
X96042000Y-75692000D02*
X96842000Y-75692000D01*
X98044000Y-100203000D02*
X98044000Y-93345000D01*
X94089214Y-102873000D02*
X95374000Y-102873000D01*
X91821000Y-90688000D02*
X91821000Y-100604786D01*
X95716000Y-88519000D02*
X94361000Y-88519000D01*
X137678000Y-94029786D02*
X134552786Y-97155000D01*
X128334688Y-93977000D02*
X131512688Y-97155000D01*
X99134000Y-99007000D02*
X99695000Y-99568000D01*
X137678000Y-93990000D02*
X137678000Y-94029786D01*
X122806000Y-102492000D02*
X125222000Y-100076000D01*
X134552786Y-97155000D02*
X131512688Y-97155000D01*
X121394214Y-102492000D02*
X122806000Y-102492000D01*
X115737786Y-85230000D02*
X120177000Y-89669214D01*
X110138000Y-85230000D02*
X115737786Y-85230000D01*
X105510786Y-92078000D02*
X108725000Y-88863786D01*
X120177000Y-89669214D02*
X120177000Y-101274786D01*
X102105000Y-89030000D02*
X103505000Y-87630000D01*
X100584000Y-93345000D02*
X99134000Y-94795000D01*
X99695000Y-99568000D02*
X100584000Y-99568000D01*
X125222000Y-94920214D02*
X125222000Y-100076000D01*
X126165214Y-93977000D02*
X125222000Y-94920214D01*
X126165214Y-93977000D02*
X128334688Y-93977000D01*
X120177000Y-101274786D02*
X121394214Y-102492000D01*
X108725000Y-88863786D02*
X108724999Y-86643001D01*
X108724999Y-86643001D02*
X110138000Y-85230000D01*
X99134000Y-94795000D02*
X99134000Y-99007000D01*
X115627000Y-95387000D02*
X112811000Y-92571000D01*
X112811000Y-89316000D02*
X111125000Y-87630000D01*
X112811000Y-92571000D02*
X112811000Y-89316000D01*
D23*
X57277000Y-73406000D02*
X57277000Y-105029000D01*
X87757000Y-73406000D02*
X147193000Y-73406000D01*
X147193000Y-105029000D02*
X57277000Y-105029000D01*
X57277000Y-73406000D02*
X87757000Y-73406000D01*
X147193000Y-105029000D02*
X147193000Y-73406000D01*
M02*
