%TF.GenerationSoftware,KiCad,Pcbnew,7.0.8*%
%TF.CreationDate,2023-11-22T16:38:17+02:00*%
%TF.ProjectId,current_sensor,63757272-656e-4745-9f73-656e736f722e,rev?*%
%TF.SameCoordinates,Original*%
%TF.FileFunction,Copper,L1,Top*%
%TF.FilePolarity,Positive*%
%FSLAX46Y46*%
G04 Gerber Fmt 4.6, Leading zero omitted, Abs format (unit mm)*
G04 Created by KiCad (PCBNEW 7.0.8) date 2023-11-22 16:38:17*
%MOMM*%
%LPD*%
G01*
G04 APERTURE LIST*
%TA.AperFunction,ComponentPad*%
%ADD10C,3.000000*%
%TD*%
%TA.AperFunction,ComponentPad*%
%ADD11O,3.000000X3.000000*%
%TD*%
%TA.AperFunction,ComponentPad*%
%ADD12R,2.400000X1.600000*%
%TD*%
%TA.AperFunction,ComponentPad*%
%ADD13O,2.400000X1.600000*%
%TD*%
%TA.AperFunction,ComponentPad*%
%ADD14C,1.600000*%
%TD*%
%TA.AperFunction,ComponentPad*%
%ADD15O,1.600000X1.600000*%
%TD*%
%TA.AperFunction,ComponentPad*%
%ADD16R,1.700000X1.700000*%
%TD*%
%TA.AperFunction,ComponentPad*%
%ADD17O,1.700000X1.700000*%
%TD*%
%TA.AperFunction,ComponentPad*%
%ADD18R,1.500000X1.050000*%
%TD*%
%TA.AperFunction,ComponentPad*%
%ADD19O,1.500000X1.050000*%
%TD*%
%TA.AperFunction,ComponentPad*%
%ADD20R,3.000000X3.000000*%
%TD*%
%TA.AperFunction,Conductor*%
%ADD21C,0.800000*%
%TD*%
%TA.AperFunction,Conductor*%
%ADD22C,2.800000*%
%TD*%
%TA.AperFunction,Profile*%
%ADD23C,0.100000*%
%TD*%
G04 APERTURE END LIST*
D10*
X67405000Y31172000D03*
D11*
X67405000Y25622000D03*
X67405000Y11322000D03*
X67405000Y5772000D03*
D12*
X33566000Y16722000D03*
D13*
X33566000Y14182000D03*
X33566000Y11642000D03*
X33566000Y9102000D03*
X25946000Y9102000D03*
X25946000Y11642000D03*
X25946000Y14182000D03*
X25946000Y16722000D03*
D14*
X38068000Y16351000D03*
D15*
X45688000Y16351000D03*
D14*
X53151000Y25241000D03*
D15*
X60771000Y25241000D03*
D14*
X25916000Y19907000D03*
D15*
X33536000Y19907000D03*
D14*
X53181000Y22193000D03*
D15*
X60801000Y22193000D03*
D16*
X7969000Y4032000D03*
D12*
X60704000Y16341000D03*
D13*
X60704000Y13801000D03*
X60704000Y11261000D03*
X60704000Y8721000D03*
X53084000Y8721000D03*
X53084000Y11261000D03*
X53084000Y13801000D03*
X53084000Y16341000D03*
D12*
X11515000Y18119000D03*
D13*
X11515000Y15579000D03*
X11515000Y13039000D03*
X11515000Y10499000D03*
X3895000Y10499000D03*
X3895000Y13039000D03*
X3895000Y15579000D03*
X3895000Y18119000D03*
D14*
X22455000Y11652000D03*
D15*
X14835000Y11652000D03*
D16*
X44926000Y13049000D03*
D17*
X44926000Y10509000D03*
X44926000Y7969000D03*
D16*
X48609000Y18764000D03*
D17*
X48609000Y16224000D03*
X48609000Y13684000D03*
D10*
X78455000Y31172000D03*
D11*
X78455000Y25622000D03*
X78455000Y11322000D03*
X78455000Y5772000D03*
D14*
X32226000Y5937000D03*
X27226000Y5937000D03*
X10342000Y7334000D03*
X5342000Y7334000D03*
D18*
X40375000Y9747000D03*
D19*
X40375000Y11017000D03*
X40375000Y12287000D03*
D14*
X60801000Y28289000D03*
D15*
X53181000Y28289000D03*
D14*
X60771000Y31337000D03*
D15*
X53151000Y31337000D03*
D18*
X18666000Y5937000D03*
D19*
X18666000Y7207000D03*
X18666000Y8477000D03*
D20*
X87471000Y30194000D03*
D10*
X87471000Y25114000D03*
X87471000Y20034000D03*
D14*
X22603000Y20288000D03*
D15*
X14983000Y20288000D03*
D18*
X19280000Y17240000D03*
D19*
X19280000Y15970000D03*
X19280000Y14700000D03*
D14*
X45688000Y4667000D03*
D15*
X38068000Y4667000D03*
D14*
X54531000Y5556000D03*
X59531000Y5556000D03*
D16*
X48609000Y10001000D03*
D17*
X48609000Y7461000D03*
X48609000Y4921000D03*
D14*
X45688000Y19399000D03*
D15*
X38068000Y19399000D03*
D21*
X11515000Y15579000D02*
X9864000Y15579000D01*
X9864000Y15579000D02*
X7969000Y13684000D01*
X11515000Y18119000D02*
X11515000Y15579000D01*
X7969000Y13684000D02*
X7969000Y4032000D01*
X25916000Y16752000D02*
X25946000Y16722000D01*
X45160792Y22799000D02*
X30091736Y22799000D01*
X19280000Y17240000D02*
X19280000Y20280000D01*
X56102000Y7127000D02*
X56102000Y13323000D01*
D22*
X79433000Y30194000D02*
X78455000Y31172000D01*
D21*
X19280000Y20280000D02*
X19272000Y20288000D01*
X27199736Y19907000D02*
X25916000Y19907000D01*
X25916000Y19907000D02*
X24135000Y21688000D01*
X46138003Y21821789D02*
X44164000Y19847786D01*
X53084000Y17488786D02*
X48750997Y21821789D01*
X48750998Y29151212D02*
X52460786Y32861000D01*
X48750997Y21821789D02*
X46138003Y21821789D01*
X52460786Y32861000D02*
X65716000Y32861000D01*
X25916000Y19907000D02*
X25916000Y16752000D01*
X65716000Y32861000D02*
X67405000Y31172000D01*
X44164000Y17875000D02*
X45688000Y16351000D01*
X25946000Y16722000D02*
X27746000Y14922000D01*
X27746000Y14922000D02*
X27746000Y6457000D01*
X54531000Y5556000D02*
X56102000Y7127000D01*
X64522000Y28289000D02*
X67405000Y31172000D01*
X53084000Y16341000D02*
X53084000Y17488786D01*
X46138003Y21821789D02*
X45160792Y22799000D01*
X19272000Y20288000D02*
X14983000Y20288000D01*
D22*
X78455000Y31172000D02*
X67405000Y31172000D01*
D21*
X60801000Y28289000D02*
X64522000Y28289000D01*
X44164000Y19847786D02*
X44164000Y17875000D01*
X20444000Y20288000D02*
X19272000Y20288000D01*
X56102000Y13323000D02*
X53084000Y16341000D01*
X27746000Y6457000D02*
X27226000Y5937000D01*
D22*
X87471000Y30194000D02*
X79433000Y30194000D01*
D21*
X48750997Y21821789D02*
X48750998Y29151212D01*
X24135000Y21688000D02*
X21844000Y21688000D01*
X30091736Y22799000D02*
X27199736Y19907000D01*
X21844000Y21688000D02*
X20444000Y20288000D01*
X35814000Y2537000D02*
X22066000Y2537000D01*
X60704000Y8721000D02*
X63179107Y11196107D01*
X33874000Y5937000D02*
X32226000Y5937000D01*
X11515000Y8507000D02*
X10342000Y7334000D01*
X33566000Y9102000D02*
X33566000Y7277000D01*
X45688000Y4667000D02*
X44288000Y3267000D01*
X60704000Y8721000D02*
X60704000Y6729000D01*
X36544000Y8039528D02*
X36544000Y3267000D01*
X36544000Y3267000D02*
X33874000Y5937000D01*
X57131000Y3156000D02*
X59531000Y5556000D01*
X48609000Y4921000D02*
X45942000Y4921000D01*
X36544000Y8039528D02*
X39521472Y11017000D01*
X36544000Y3267000D02*
X35814000Y2537000D01*
X79369123Y3677123D02*
X87471000Y11779000D01*
X22066000Y2537000D02*
X18666000Y5937000D01*
X45942000Y4921000D02*
X45688000Y4667000D01*
X60704000Y6729000D02*
X59531000Y5556000D01*
X15139000Y2537000D02*
X10342000Y7334000D01*
X50374000Y3156000D02*
X48609000Y4921000D01*
X11515000Y10499000D02*
X11515000Y8507000D01*
X64504000Y18490000D02*
X60801000Y22193000D01*
X87471000Y11779000D02*
X87471000Y20034000D01*
X59531000Y5556000D02*
X61409877Y3677123D01*
X33566000Y7277000D02*
X32226000Y5937000D01*
X39521472Y11017000D02*
X40375000Y11017000D01*
X63179107Y11196107D02*
X63179107Y12321893D01*
X64504000Y13646786D02*
X64504000Y18490000D01*
X61409877Y3677123D02*
X79369123Y3677123D01*
X63179107Y12321893D02*
X64504000Y13646786D01*
X57131000Y3156000D02*
X50374000Y3156000D01*
X22066000Y2537000D02*
X15139000Y2537000D01*
X44288000Y3267000D02*
X36544000Y3267000D01*
X9620000Y20161000D02*
X6318000Y16859000D01*
X12858528Y20161000D02*
X9620000Y20161000D01*
X6318000Y8310000D02*
X5342000Y7334000D01*
X18319528Y14700000D02*
X12858528Y20161000D01*
X6318000Y16859000D02*
X5155000Y16859000D01*
X5155000Y16859000D02*
X3895000Y18119000D01*
X19280000Y14700000D02*
X18319528Y14700000D01*
X6318000Y16859000D02*
X6318000Y8310000D01*
X60771000Y25241000D02*
X65627000Y20385000D01*
D22*
X87471000Y25114000D02*
X85820000Y25114000D01*
X78455000Y5772000D02*
X67405000Y5772000D01*
X82518000Y21812000D02*
X82518000Y9835000D01*
D21*
X65246000Y7931000D02*
X67405000Y5772000D01*
D22*
X82518000Y9835000D02*
X78455000Y5772000D01*
X85820000Y25114000D02*
X82518000Y21812000D01*
D21*
X65627000Y13355572D02*
X65246000Y12974572D01*
X65246000Y12974572D02*
X65246000Y7931000D01*
X65627000Y20385000D02*
X65627000Y13355572D01*
X30159000Y5483000D02*
X28213000Y3537000D01*
X31821264Y16722000D02*
X30159000Y15059736D01*
X21968000Y7207000D02*
X18666000Y7207000D01*
X33566000Y16722000D02*
X33566000Y19877000D01*
X28213000Y3537000D02*
X25638000Y3537000D01*
X25638000Y3537000D02*
X21968000Y7207000D01*
X30159000Y15059736D02*
X30159000Y5483000D01*
X33566000Y19877000D02*
X33536000Y19907000D01*
X33566000Y16722000D02*
X31821264Y16722000D01*
X19280000Y8477000D02*
X22455000Y11652000D01*
X18666000Y8477000D02*
X19280000Y8477000D01*
X18044098Y11652000D02*
X14835000Y11652000D01*
X20133528Y15970000D02*
X19280000Y15970000D01*
X22603000Y18439472D02*
X20133528Y15970000D01*
X22603000Y20288000D02*
X22603000Y18439472D01*
X22603000Y16210902D02*
X18044098Y11652000D01*
X22603000Y18439472D02*
X22603000Y16210902D01*
X40375000Y6974000D02*
X38068000Y4667000D01*
X44926000Y7969000D02*
X42153000Y7969000D01*
X42153000Y7969000D02*
X40375000Y9747000D01*
X40375000Y9747000D02*
X40375000Y6974000D01*
X33566000Y14182000D02*
X33874528Y14182000D01*
X33874528Y14182000D02*
X35366000Y15673472D01*
X44037000Y10509000D02*
X44926000Y10509000D01*
X42259000Y12287000D02*
X44037000Y10509000D01*
X37495214Y20799000D02*
X38640786Y20799000D01*
X38068000Y16351000D02*
X38068000Y14594000D01*
X39468000Y19971786D02*
X39468000Y17751000D01*
X38640786Y20799000D02*
X39468000Y19971786D01*
X35366000Y18669786D02*
X37495214Y20799000D01*
X35366000Y15673472D02*
X35366000Y18669786D01*
X39468000Y17751000D02*
X38068000Y16351000D01*
X40375000Y12287000D02*
X42259000Y12287000D01*
X38068000Y14594000D02*
X40375000Y12287000D01*
X63504000Y17803742D02*
X61543741Y19764001D01*
X60704000Y11261000D02*
X63504000Y14061000D01*
X53181000Y22193000D02*
X51751000Y23623000D01*
X51751000Y26859000D02*
X53181000Y28289000D01*
X57700528Y22193000D02*
X53181000Y22193000D01*
X61543741Y19764001D02*
X60129527Y19764001D01*
X51751000Y23623000D02*
X51751000Y26859000D01*
X60129527Y19764001D02*
X57700528Y22193000D01*
X63504000Y14061000D02*
X63504000Y17803742D01*
X56102000Y20415000D02*
X52986214Y20415000D01*
X52986214Y20415000D02*
X50750999Y22650215D01*
X62504000Y15292472D02*
X62504000Y17389528D01*
X62504000Y17389528D02*
X61129528Y18764000D01*
X57599000Y29689000D02*
X59247000Y31337000D01*
X60704000Y13801000D02*
X61012528Y13801000D01*
X57753000Y18764000D02*
X56102000Y20415000D01*
X61129528Y18764000D02*
X57753000Y18764000D01*
X52608214Y29689000D02*
X57599000Y29689000D01*
X59247000Y31337000D02*
X60771000Y31337000D01*
X53151000Y25241000D02*
X57599000Y29689000D01*
X50751000Y27831786D02*
X52608214Y29689000D01*
X61012528Y13801000D02*
X62504000Y15292472D01*
X50750999Y22650215D02*
X50751000Y27831786D01*
X57001000Y16341000D02*
X57372000Y16341000D01*
X54832000Y18510000D02*
X57001000Y16341000D01*
X57372000Y16341000D02*
X60704000Y16341000D01*
X49750999Y28736999D02*
X49750998Y22236002D01*
X51149000Y13684000D02*
X48609000Y16224000D01*
X53819000Y4156000D02*
X51149000Y6826000D01*
X52351000Y31337000D02*
X49750999Y28736999D01*
X57372000Y6424214D02*
X55103786Y4156000D01*
X49750998Y22236002D02*
X53477000Y18510000D01*
X53151000Y31337000D02*
X52351000Y31337000D01*
X51149000Y6826000D02*
X51149000Y13684000D01*
X55103786Y4156000D02*
X53819000Y4156000D01*
X57372000Y16341000D02*
X57372000Y6424214D01*
X53477000Y18510000D02*
X54832000Y18510000D01*
X11515000Y12999214D02*
X14640214Y9874000D01*
X20858312Y13052000D02*
X17680312Y9874000D01*
X50059000Y8022000D02*
X49498000Y7461000D01*
X11515000Y13039000D02*
X11515000Y12999214D01*
X26387000Y4537000D02*
X23971000Y6953000D01*
X14640214Y9874000D02*
X17680312Y9874000D01*
X27798786Y4537000D02*
X26387000Y4537000D01*
X43682214Y14951000D02*
X46834000Y14951000D01*
X33455214Y21799000D02*
X29016000Y17359786D01*
X47088000Y15205000D02*
X48609000Y13684000D01*
X39055000Y21799000D02*
X33455214Y21799000D01*
X43682214Y14951000D02*
X40468000Y18165214D01*
X29016000Y17359786D02*
X29016000Y5754214D01*
X47088000Y17999000D02*
X45688000Y19399000D01*
X48609000Y13684000D02*
X50059000Y12234000D01*
X49498000Y7461000D02*
X48609000Y7461000D01*
X23971000Y12108786D02*
X23971000Y6953000D01*
X23027786Y13052000D02*
X23971000Y12108786D01*
X46834000Y14951000D02*
X47088000Y15205000D01*
X23027786Y13052000D02*
X20858312Y13052000D01*
X29016000Y5754214D02*
X27798786Y4537000D01*
X40468000Y18165214D02*
X40468001Y20385999D01*
X40468001Y20385999D02*
X39055000Y21799000D01*
X50059000Y12234000D02*
X50059000Y8022000D01*
X47088000Y17999000D02*
X47088000Y15205000D01*
X33566000Y11642000D02*
X36382000Y14458000D01*
X36382000Y17713000D02*
X38068000Y19399000D01*
X36382000Y14458000D02*
X36382000Y17713000D01*
D23*
X91916000Y33623000D02*
X91916000Y2000000D01*
X61436000Y33623000D02*
X2000000Y33623000D01*
X2000000Y2000000D02*
X91916000Y2000000D01*
X91916000Y33623000D02*
X61436000Y33623000D01*
X2000000Y2000000D02*
X2000000Y33623000D01*
M02*
